<svg class="ait-w-4 ait-h-4 lg:ait-w-4 lg:ait-h-4 ait-chat_pdf_icon" fill="none" xmlns="http://www.w3.org/2000/svg" viewBox="0 0 16 16"><path fill-rule="evenodd" clip-rule="evenodd" d="M3.79128 0.289062C2.90763 0.289062 2.19128 1.00541 2.19128 1.88906V2.33517C1.42585 2.45474 0.84021 3.11694 0.84021 3.91592V4.6181C0.84021 5.41709 1.42585 6.07929 2.19128 6.19886V13.4C2.19128 14.2837 2.90763 15 3.79128 15H12.6C13.4837 15 14.2 14.2837 14.2 13.4V1.88906C14.2 1.00541 13.4837 0.289062 12.6 0.289062H3.79128ZM3.39128 6.21811V13.4C3.39128 13.6209 3.57037 13.8 3.79128 13.8H12.6C12.8209 13.8 13 13.6209 13 13.4V1.88906C13 1.66815 12.8209 1.48906 12.6 1.48906H3.79128C3.57037 1.48906 3.39128 1.66815 3.39128 1.88906V2.31592H5.84458C6.72824 2.31592 7.44458 3.03226 7.44458 3.91592V4.6181C7.44458 5.50176 6.72824 6.21811 5.84458 6.21811H3.39128ZM2.04021 3.91592C2.04021 3.695 2.2193 3.51592 2.44021 3.51592H5.84458C6.0655 3.51592 6.24458 3.695 6.24458 3.91592V4.6181C6.24458 4.83902 6.0655 5.01811 5.84458 5.01811H2.44021C2.2193 5.01811 2.04021 4.83902 2.04021 4.6181V3.91592Z" fill="currentColor" fill-opacity="0.5"></path><path d="M11.2151 11.1661C10.6578 11.1247 10.1215 10.9178 9.68817 10.5452C8.84183 10.7314 8.03717 11.0006 7.23237 11.3317C6.59261 12.4699 5.99415 13.0492 5.47818 13.0492C5.37504 13.0492 5.2512 13.0284 5.1687 12.9664C4.94166 12.8629 4.81787 12.6353 4.81787 12.4078C4.81787 12.2215 4.85907 11.704 6.81975 10.8558C7.27352 10.028 7.62435 9.17948 7.91333 8.28976C7.6657 7.79314 7.12923 6.57219 7.50066 5.95153C7.62435 5.72383 7.87213 5.59969 8.14042 5.6204C8.34676 5.6204 8.55309 5.72387 8.67679 5.88942C8.94522 6.26196 8.92452 7.04815 8.5736 8.20704C8.90392 8.82784 9.3373 9.38643 9.85317 9.86254C10.2866 9.77972 10.7198 9.71756 11.1533 9.71756C12.1232 9.73822 12.2676 10.1937 12.2471 10.4624C12.2471 11.1661 11.5661 11.1661 11.2151 11.1661ZM5.43693 12.4491L5.49888 12.4281C5.78776 12.3248 6.01475 12.118 6.17989 11.8489C5.87026 11.9731 5.62262 12.1803 5.43693 12.4491ZM8.18162 6.2411H8.11957C8.09897 6.2411 8.05773 6.2411 8.03713 6.26191C7.95453 6.6136 8.01662 6.98614 8.16107 7.31722C8.28476 6.96543 8.28476 6.59284 8.18162 6.2411ZM8.32611 9.24164L8.30536 9.2831L8.28471 9.26235C8.09893 9.73817 7.89264 10.2144 7.66555 10.6694L7.70685 10.6488V10.6901C8.16107 10.5244 8.65619 10.3799 9.11031 10.2764L9.08951 10.2556H9.15146C8.84178 9.94502 8.553 9.59333 8.32611 9.24164ZM11.1326 10.3385C10.9469 10.3385 10.7819 10.3385 10.5961 10.3799C10.8024 10.4831 11.0087 10.5245 11.215 10.5453C11.3598 10.566 11.504 10.5453 11.6278 10.504C11.6278 10.4417 11.5453 10.3385 11.1326 10.3385Z" fill="currentColor"></path></svg>