<?xml version="1.0" encoding="UTF-8"?><svg width="17px" height="18px" viewBox="0 0 17 18" version="1.1" xmlns="http://www.w3.org/2000/svg" xmlns:xlink="http://www.w3.org/1999/xlink">    <title>Icons / Media Controls / Play / Dark BG - 24 Filled</title>    <g id="Page-1" stroke="none" stroke-width="1" fill="none" fill-rule="evenodd">        <g id="1.3-ICONS-/-On-Dark" transform="translate(-990.000000, -6523.000000)">            <g id="Group" transform="translate(986.000000, 6520.000000)">                <g id="Group-6" transform="translate(5.000000, 3.000000)">                    <path d="M14.3145,8.3506 L1.3675,0.8756 C0.8675,0.5866 0.2425,0.9476 0.2425,1.5256 L0.2425,16.4746 C0.2425,17.0526 0.8675,17.4136 1.3675,17.1236 L14.3145,9.6496 C14.8145,9.3616 14.8145,8.6386 14.3145,8.3506" id="Fill-2" fill="#FFFFFF"></path>                    <path d="M14.3145,8.3506 L1.3675,0.8756 C0.8675,0.5866 0.2425,0.9476 0.2425,1.5256 L0.2425,16.4746 C0.2425,17.0526 0.8675,17.4136 1.3675,17.1236 L14.3145,9.6496 C14.8145,9.3616 14.8145,8.6386 14.3145,8.3506 Z" id="Stroke-4" stroke="#FFFFFF" stroke-width="1.5"></path>                </g>            </g>        </g>    </g></svg>